<?xml version="1.0" encoding="UTF-8" standalone="no"?>
<svg
   xmlns:osb="http://www.openswatchbook.org/uri/2009/osb"
   xmlns:dc="http://purl.org/dc/elements/1.1/"
   xmlns:cc="http://creativecommons.org/ns#"
   xmlns:rdf="http://www.w3.org/1999/02/22-rdf-syntax-ns#"
   xmlns:svg="http://www.w3.org/2000/svg"
   xmlns="http://www.w3.org/2000/svg"
   xmlns:sodipodi="http://sodipodi.sourceforge.net/DTD/sodipodi-0.dtd"
   xmlns:inkscape="http://www.inkscape.org/namespaces/inkscape"
   width="1920"
   height="200"
   viewBox="0 0 507.99999 52.916668"
   version="1.1"
   id="svg8"
   inkscape:version="1.0.1 (3bc2e813f5, 2020-09-07)"
   sodipodi:docname="footer-background.svg">
  <defs
     id="defs2">
    <linearGradient
       id="linearGradient2847"
       osb:paint="solid">
      <stop
         style="stop-color:#fe007b;stop-opacity:1;"
         offset="0"
         id="stop2845" />
    </linearGradient>
  </defs>
  <sodipodi:namedview
     id="base"
     pagecolor="#ffffff"
     bordercolor="#666666"
     borderopacity="1.0"
     inkscape:pageopacity="0.0"
     inkscape:pageshadow="2"
     inkscape:zoom="0.89017673"
     inkscape:cx="693.40057"
     inkscape:cy="72.852563"
     inkscape:document-units="mm"
     inkscape:current-layer="layer1"
     inkscape:document-rotation="0"
     showgrid="false"
     units="px"
     inkscape:window-width="1920"
     inkscape:window-height="1005"
     inkscape:window-x="-9"
     inkscape:window-y="-9"
     inkscape:window-maximized="1" />
  <metadata
     id="metadata5">
    <rdf:RDF>
      <cc:Work
         rdf:about="">
        <dc:format>image/svg+xml</dc:format>
        <dc:type
           rdf:resource="http://purl.org/dc/dcmitype/StillImage" />
        <dc:title />
      </cc:Work>
    </rdf:RDF>
  </metadata>
  <g
     inkscape:label="Layer 1"
     inkscape:groupmode="layer"
     id="layer1">
    <rect
       style="fill:#fbfbfb;stroke:#07beca;stroke-width:0.132292"
       id="rect833"
       width="57.452377"
       height="38.175598"
       x="-25.693035"
       y="56.131813"
       ry="0"
       transform="rotate(-23.113043)" />
    <rect
       style="fill:#fbfbfb;stroke:#07beca;stroke-width:0.0644037"
       id="rect835"
       width="13.248723"
       height="13.248723"
       x="281.60721"
       y="-196.29971"
       transform="rotate(40.243447)" />
    <circle
       style="font-variation-settings:normal;opacity:0.398693;vector-effect:none;fill:#f1f1f1;fill-opacity:1;fill-rule:evenodd;stroke:#44758d;stroke-width:0.264583;stroke-linecap:butt;stroke-linejoin:miter;stroke-miterlimit:4;stroke-dasharray:none;stroke-dashoffset:0;stroke-opacity:1;stop-color:#000000;stop-opacity:1"
       id="path837"
       cx="152.60649"
       cy="69.923836"
       r="30.238094" />
    <path
       sodipodi:type="spiral"
       style="fill:none;fill-rule:evenodd;stroke:#6cffbd;stroke-width:0.17383125;stroke-opacity:1;stroke-miterlimit:4;stroke-dasharray:none"
       id="path839"
       sodipodi:cx="112.86156"
       sodipodi:cy="24.243233"
       sodipodi:expansion="1"
       sodipodi:revolution="3"
       sodipodi:radius="7.750576"
       sodipodi:argument="-19.72245"
       sodipodi:t0="0"
       d="m 112.86156,24.243233 c 0.24972,-0.297744 0.52455,0.189721 0.49487,0.415051 -0.0804,0.610629 -0.8392,0.774215 -1.32497,0.574687 -0.86894,-0.356908 -1.06423,-1.464524 -0.65451,-2.234891 0.60127,-1.130544 2.098,-1.361912 3.14481,-0.734324 1.39523,0.836476 1.66282,2.734336 0.81414,4.054731 -1.06797,1.661583 -3.37201,1.965387 -4.96465,0.893961 -1.92889,-1.297641 -2.26891,-4.010453 -0.97378,-5.874571 1.52627,-2.196799 4.64937,-2.573029 6.78449,-1.053598 2.46509,1.754244 2.87755,5.288587 1.13342,7.694411 -1.9818,2.733651 -5.92803,3.182351 -8.60433,1.213234 -3.0024,-2.209051 -3.48736,-6.567639 -1.29305,-9.514251 2.43609,-3.271298 7.20736,-3.792511 10.42417,-1.37287" />
    <rect
       style="fill:#fbfbfb;stroke:#07beca;stroke-width:0.0809625;stroke-miterlimit:4;stroke-dasharray:none"
       id="rect841"
       width="5.828474"
       height="5.828474"
       x="294.58881"
       y="-206.71971"
       transform="rotate(40.243447)" />
    <rect
       style="fill:#fbfbfb;stroke:#07beca;stroke-width:0.09181042;stroke-miterlimit:4;stroke-dasharray:none"
       id="rect843"
       width="2.5635643"
       height="2.5635643"
       x="298.87943"
       y="-212.80412"
       transform="rotate(40.243447)" />
    <path
       sodipodi:type="star"
       style="opacity:0.398693;fill:#f1f1f1;fill-opacity:1;stroke:#6cffa0;stroke-width:0.386577;stroke-miterlimit:4;stroke-dasharray:none;stroke-opacity:1"
       id="path847"
       sodipodi:sides="5"
       sodipodi:cx="446.07224"
       sodipodi:cy="43.098614"
       sodipodi:r1="6.8324265"
       sodipodi:r2="3.4162135"
       sodipodi:arg1="1.5495229"
       sodipodi:arg2="2.1778415"
       inkscape:flatsided="false"
       inkscape:rounded="0"
       inkscape:randomized="0"
       d="m 446.21757,49.929494 -2.09409,-4.025017 -4.50289,-0.55678 3.18091,-3.2354 -0.86194,-4.454554 4.06001,2.02543 3.97017,-2.196285 -0.67168,4.487184 3.31564,3.097175 -4.47513,0.747802 z"
       inkscape:transform-center-x="0.36219795"
       inkscape:transform-center-y="0.10841588"
       transform="matrix(-0.44898705,-0.55646553,0.55646553,-0.44898705,650.446,309.5514)" />
    <path
       sodipodi:type="star"
       style="opacity:0.398693;fill:#f1f1f1;fill-opacity:1;stroke:#6cffdd;stroke-width:0.218387;stroke-miterlimit:4;stroke-dasharray:none;stroke-opacity:1"
       id="path849"
       sodipodi:sides="5"
       sodipodi:cx="456.55588"
       sodipodi:cy="37.172905"
       sodipodi:r1="3.9477911"
       sodipodi:r2="1.9738955"
       sodipodi:arg1="0.96972257"
       sodipodi:arg2="1.5980411"
       inkscape:flatsided="false"
       inkscape:rounded="0"
       inkscape:randomized="0"
       d="m 458.78847,40.428762 -2.28636,-1.282694 -2.35283,1.156269 0.51339,-2.570831 -1.82674,-1.880363 2.60365,-0.306167 1.22384,-2.318397 1.09576,2.38161 2.58311,0.447514 -1.92644,1.778083 z"
       inkscape:transform-center-x="-0.25011973"
       inkscape:transform-center-y="-0.020342164"
       transform="matrix(-0.44898705,-0.55646553,0.55646553,-0.44898705,650.446,309.5514)" />
    <path
       sodipodi:type="star"
       style="opacity:0.398693;fill:#f1f1f1;fill-opacity:1;stroke:#6cffe1;stroke-width:0.287216;stroke-miterlimit:4;stroke-dasharray:none;stroke-opacity:1"
       id="path863"
       sodipodi:sides="5"
       sodipodi:cx="465.28644"
       sodipodi:cy="34.932995"
       sodipodi:r1="2.7637453"
       sodipodi:r2="1.3818727"
       sodipodi:arg1="0.96972257"
       sodipodi:arg2="1.5980411"
       inkscape:flatsided="false"
       inkscape:rounded="0"
       inkscape:randomized="0"
       d="m 466.84941,37.212335 -1.60062,-0.89798 -1.64715,0.809474 0.35941,-1.799772 -1.27885,-1.316393 1.82275,-0.214339 0.85678,-1.62305 0.76711,1.667303 1.80837,0.313293 -1.34865,1.244789 z"
       inkscape:transform-center-x="-0.17509531"
       inkscape:transform-center-y="-0.014244688"
       transform="matrix(-0.44898705,-0.55646553,0.55646553,-0.44898705,650.446,309.5514)" />
    <path
       sodipodi:type="star"
       style="opacity:0.398693;fill:#f1f1f1;fill-opacity:1;stroke:#6cdaff;stroke-width:0.258235;stroke-miterlimit:4;stroke-dasharray:none;stroke-opacity:1"
       id="path865"
       sodipodi:sides="5"
       sodipodi:cx="472.59488"
       sodipodi:cy="34.9151"
       sodipodi:r1="1.7610779"
       sodipodi:r2="0.88053894"
       sodipodi:arg1="0.96972257"
       sodipodi:arg2="1.5980411"
       inkscape:flatsided="false"
       inkscape:rounded="0"
       inkscape:randomized="0"
       d="m 473.59082,36.367512 -1.01993,-0.5722 -1.04957,0.515803 0.22902,-1.146827 -0.8149,-0.838815 1.16147,-0.136579 0.54594,-1.034218 0.48881,1.062417 1.15231,0.199632 -0.85937,0.793189 z"
       inkscape:transform-center-x="-0.11157121"
       inkscape:transform-center-y="-0.0090787561"
       transform="matrix(-0.44898705,-0.55646553,0.55646553,-0.44898705,650.446,309.5514)" />
    <path
       sodipodi:type="star"
       style="opacity:0.398693;fill:#f1f1f1;fill-opacity:1;stroke:#6c80ff;stroke-width:0.247368;stroke-miterlimit:4;stroke-dasharray:none;stroke-opacity:1"
       id="path867"
       sodipodi:sides="5"
       sodipodi:cx="478.04831"
       sodipodi:cy="36.567787"
       sodipodi:r1="1.3910637"
       sodipodi:r2="0.69553185"
       sodipodi:arg1="0.96972257"
       sodipodi:arg2="1.5980411"
       inkscape:flatsided="false"
       inkscape:rounded="0"
       inkscape:randomized="0"
       d="m 478.835,37.715038 -0.80564,-0.451977 -0.82905,0.407429 0.1809,-0.905871 -0.64368,-0.662574 0.91744,-0.107883 0.43123,-0.816922 0.38611,0.839196 0.9102,0.157688 -0.67881,0.626534 z"
       inkscape:transform-center-x="-0.088113951"
       inkscape:transform-center-y="-0.0071890724"
       transform="matrix(-0.44898705,-0.55646553,0.55646553,-0.44898705,650.446,309.5514)" />
    <path
       sodipodi:type="star"
       style="opacity:1;fill:#f1f1f1;fill-opacity:1;stroke:#d921dd;stroke-width:0.0199712;stroke-miterlimit:4;stroke-dasharray:none;stroke-opacity:1"
       id="path869"
       sodipodi:sides="5"
       sodipodi:cx="243.13055"
       sodipodi:cy="50.974194"
       sodipodi:r1="6.6270313"
       sodipodi:r2="5.3613815"
       sodipodi:arg1="-1.0419148"
       sodipodi:arg2="-0.41359625"
       inkscape:flatsided="true"
       inkscape:rounded="0"
       inkscape:randomized="0"
       d="m 246.47434,45.252601 3.13106,7.133654 -5.81696,5.182234 -6.72614,-3.930859 1.65998,-7.611637 z"
       inkscape:transform-center-x="-1.1853061"
       inkscape:transform-center-y="-0.31937211"
       transform="matrix(2.2657583,-0.65374659,0.65374659,2.2657583,-355.45242,96.17082)" />
  </g>
</svg>
