<?xml version="1.0" encoding="UTF-8"?>
<svg xmlns="http://www.w3.org/2000/svg" xmlns:xlink="http://www.w3.org/1999/xlink" width="128pt" height="128pt" viewBox="0 0 128 128" version="1.1">
<g id="surface2318950">
<path style=" stroke:none;fill-rule:nonzero;fill:rgb(52.156866%,79.607844%,97.254902%);fill-opacity:1;" d="M 64 8 C 44.144531 8 38 17.417969 38 23.527344 L 38 34 L 64 34 L 64 42 L 23.527344 42 C 15.636719 42 8 47.710938 8 64 C 8 80.289062 15.636719 86 23.527344 86 L 38.546875 86 L 38.546875 74.183594 C 38.546875 68.582031 43.128906 64 48.726562 64 L 79.273438 64 C 84.875 64 90.003906 59.417969 90.003906 53.816406 L 90.003906 23.527344 C 90 17.164062 83.855469 8 64 8 Z M 64 8 "/>
<path style=" stroke:none;fill-rule:nonzero;fill:rgb(97.647059%,86.666667%,56.078434%);fill-opacity:1;" d="M 64 120 C 83.855469 120 89.453125 110.582031 89.453125 104.472656 L 89.453125 94 L 64 94 L 64 86 L 104.472656 86 C 112.363281 86 120 80.289062 120 64 C 120 47.710938 112.363281 42 104.472656 42 L 90 42 L 90 53.816406 C 90 59.417969 84.871094 64 79.273438 64 L 48.726562 64 C 43.128906 64 38 68.582031 38 74.183594 L 38 104.472656 C 38 110.582031 44.144531 120 64 120 Z M 64 120 "/>
<path style=" stroke:none;fill-rule:nonzero;fill:rgb(55.29412%,42.352942%,61.960787%);fill-opacity:1;" d="M 53 18 C 50.238281 18 48 20.238281 48 23 C 48 25.761719 50.238281 28 53 28 C 55.761719 28 58 25.761719 58 23 C 58 20.238281 55.761719 18 53 18 Z M 77 100 C 74.238281 100 72 102.238281 72 105 C 72 107.761719 74.238281 110 77 110 C 79.761719 110 82 107.761719 82 105 C 82 102.238281 79.761719 100 77 100 Z M 77 100 "/>
<path style=" stroke:none;fill-rule:nonzero;fill:rgb(67.450982%,89.019608%,100%);fill-opacity:1;" d="M 8 64 C 8 80.289062 15.636719 86 23.527344 86 L 36.125 86 C 36.125 80.476562 31.648438 76 26.125 76 L 23.527344 76 C 19.453125 76 18 69.800781 18 64 C 18 58.199219 19.453125 52 23.507812 52 L 56.074219 52.0625 C 56.078125 52.0625 56.089844 52.0625 56.09375 52.0625 C 61.609375 52.0625 66.085938 47.597656 66.09375 42.082031 C 66.09375 42.054688 66.085938 42.027344 66.085938 42 L 23.527344 42 C 15.636719 42 8 47.710938 8 64 Z M 8 64 "/>
<path style=" stroke:none;fill-rule:nonzero;fill:rgb(93.725491%,78.431374%,55.686277%);fill-opacity:1;" d="M 120.09375 64 C 120.09375 47.710938 112.457031 42 104.566406 42 L 91.96875 42 C 91.96875 47.523438 96.445312 52 101.96875 52 L 104.566406 52 C 108.640625 52 110.09375 58.199219 110.09375 64 C 110.09375 69.800781 108.640625 76 104.585938 76 L 72.019531 75.9375 C 72.015625 75.9375 72.007812 75.9375 72 75.9375 C 66.484375 75.9375 62.011719 80.402344 62 85.917969 C 62 85.945312 62.007812 85.972656 62.007812 86 L 104.566406 86 C 112.457031 86 120.09375 80.289062 120.09375 64 Z M 120.09375 64 "/>
<path style=" stroke:none;fill-rule:nonzero;fill:rgb(55.29412%,42.352942%,62.352943%);fill-opacity:1;" d="M 40 88 L 23.527344 88 C 19.414062 88 6 86.269531 6 64 C 6 41.730469 19.414062 40 23.527344 40 L 62 40 L 62 36 L 36 36 L 36 23.527344 C 36 17.464844 41.851562 6 64 6 C 86.105469 6 92 17.019531 92 23.527344 L 92 53.820312 C 92 60.421875 86.171875 66 79.273438 66 L 48.726562 66 C 44.078125 66 40 69.824219 40 74.183594 Z M 23.527344 44 C 14.929688 44 10 51.289062 10 64 C 10 76.710938 14.929688 84 23.527344 84 L 36 84 L 36 74.183594 C 36 67.578125 41.828125 62 48.726562 62 L 79.273438 62 C 83.921875 62 88 58.175781 88 53.816406 L 88 23.527344 C 88 18.503906 82.945312 10 64 10 C 45.015625 10 40 18.847656 40 23.527344 L 40 32 L 66 32 L 66 44 Z M 23.527344 44 "/>
<path style=" stroke:none;fill-rule:nonzero;fill:rgb(55.29412%,42.352942%,61.960787%);fill-opacity:1;" d="M 64 122 C 41.851562 122 36 110.535156 36 104.472656 L 36 74.183594 C 36 67.578125 41.828125 62 48.726562 62 L 79.273438 62 C 83.921875 62 88 58.175781 88 53.816406 L 88 40 L 104.472656 40 C 108.585938 40 122 41.730469 122 64 C 122 86.269531 108.585938 88 104.472656 88 L 66 88 L 66 92 L 92 92 L 92 104.472656 C 92 110.535156 86.148438 122 64 122 Z M 48.726562 66 C 44.078125 66 40 69.824219 40 74.183594 L 40 104.472656 C 40 109.152344 45.015625 118 64 118 C 82.984375 118 88 109.152344 88 104.472656 L 88 96 L 62 96 L 62 84 L 104.472656 84 C 113.070312 84 118 76.710938 118 64 C 118 51.289062 113.070312 44 104.472656 44 L 92 44 L 92 53.816406 C 92 60.421875 86.171875 66 79.273438 66 Z M 48.726562 66 "/>
<path style=" stroke:none;fill-rule:nonzero;fill:rgb(55.29412%,42.352942%,62.352943%);fill-opacity:1;" d="M 75.304688 80 C 74.199219 80 73.304688 79.105469 73.304688 78 L 73.304688 74 C 73.304688 72.894531 74.199219 72 75.304688 72 C 76.410156 72 77.304688 72.894531 77.304688 74 L 77.304688 78 C 77.304688 79.105469 76.410156 80 75.304688 80 Z M 84.4375 80 C 83.328125 80 82.4375 79.105469 82.4375 78 L 82.4375 74 C 82.4375 72.894531 83.328125 72 84.4375 72 C 85.542969 72 86.4375 72.894531 86.4375 74 L 86.4375 78 C 86.4375 79.105469 85.542969 80 84.4375 80 Z M 93.5625 80 C 92.457031 80 91.5625 79.105469 91.5625 78 L 91.5625 74 C 91.5625 72.894531 92.457031 72 93.5625 72 C 94.671875 72 95.5625 72.894531 95.5625 74 L 95.5625 78 C 95.5625 79.105469 94.671875 80 93.5625 80 Z M 102.695312 80 C 101.589844 80 100.695312 79.105469 100.695312 78 L 100.695312 74 C 100.695312 72.894531 101.589844 72 102.695312 72 C 103.800781 72 104.695312 72.894531 104.695312 74 L 104.695312 78 C 104.695312 79.105469 103.800781 80 102.695312 80 Z M 102.695312 80 "/>
<path style=" stroke:none;fill-rule:nonzero;fill:rgb(55.29412%,42.352942%,62.352943%);fill-opacity:1;" d="M 31.304688 56.164062 C 30.199219 56.164062 29.304688 55.269531 29.304688 54.164062 L 29.304688 50.164062 C 29.304688 49.0625 30.199219 48.164062 31.304688 48.164062 C 32.40625 48.164062 33.304688 49.0625 33.304688 50.164062 L 33.304688 54.164062 C 33.304688 55.273438 32.410156 56.164062 31.304688 56.164062 Z M 40.433594 56.164062 C 39.328125 56.164062 38.433594 55.269531 38.433594 54.164062 L 38.433594 50.164062 C 38.433594 49.0625 39.328125 48.164062 40.433594 48.164062 C 41.539062 48.164062 42.433594 49.0625 42.433594 50.164062 L 42.433594 54.164062 C 42.433594 55.273438 41.539062 56.164062 40.433594 56.164062 Z M 49.566406 56.164062 C 48.460938 56.164062 47.566406 55.269531 47.566406 54.164062 L 47.566406 50.164062 C 47.566406 49.0625 48.460938 48.164062 49.566406 48.164062 C 50.671875 48.164062 51.566406 49.0625 51.566406 50.164062 L 51.566406 54.164062 C 51.566406 55.273438 50.671875 56.164062 49.566406 56.164062 Z M 58.695312 56.164062 C 57.59375 56.164062 56.695312 55.269531 56.695312 54.164062 L 56.695312 50.164062 C 56.695312 49.0625 57.59375 48.164062 58.695312 48.164062 C 59.800781 48.164062 60.695312 49.0625 60.695312 50.164062 L 60.695312 54.164062 C 60.695312 55.273438 59.800781 56.164062 58.695312 56.164062 Z M 58.695312 56.164062 "/>
</g>
</svg>
